#!OML:ASF I:\golf\golf\golf 2\Subject 1\2002-09-07\Subject1.ASF
:FULLY-SPECIFIED
:DEGREES
248
root -7.23683 18.0672 -0.212449 -163.09 64.0996 -179.086
lowerback -1.83547 -8.63395 -1.1764
upperback 4.98168 -11.6825 10.5569
thorax 8.98733 -6.12269 10.9054
lowerneck -10.7171 -0.222752 0.961659
upperneck 23.6318 3.5482 -13.4967
head 9.49264 0.608241 -4.42247
rclavicle -4.69132e-014 5.56597e-014
rhumerus -7.21493 -3.33472 -82.3036
rradius 66.7221
rwrist -57.8194
rhand -61.2917 11.5633
rfingers 7.12502
rthumb -33.3806 -15.3558
lclavicle -4.69132e-014 5.56597e-014
lhumerus 33.0184 -58.041 93.0241
lradius 17.3335
lwrist -8.70854
lhand -5.70345 32.6346
lfingers 7.12502
lthumb -159.883 -118.387
rfemur -24.2069 -5.46617 9.06946
rtibia 35.9021
rfoot -7.6923 -21.1887
rtoes -5.62357
lfemur -30.3447 -1.51062 -14.2389
ltibia 17.9663
lfoot -3.39273 -21.7955
ltoes -7.10321
249
root -7.21732 18.0869 -0.282141 -164.77 62.2864 -180.163
lowerback -1.99215 -8.37356 -1.126
upperback 4.69197 -11.2979 11.0716
thorax 8.78988 -5.92552 11.5257
lowerneck -10.4467 -1.23951 0.595661
upperneck 24.0377 2.36277 -13.7459
head 9.48153 0.0254039 -4.58611
rclavicle 1.01778e-013 6.20208e-014
rhumerus -8.38634 -1.06156 -82.9192
rradius 64.0023
rwrist -60.8493
rhand -60.2939 9.77891
rfingers 7.12502
rthumb -32.4316 -17.3395
lclavicle 1.01778e-013 6.20208e-014
lhumerus 30.3173 -58.5946 92.8818
lradius 17.5682
lwrist -6.75423
lhand -4.88993 34.4358
lfingers 7.12502
lthumb -159.101 -116.67
rfemur -22.9132 -5.26057 8.3259
rtibia 36.3684
rfoot -8.16526 -21.8374
rtoes -1.5639
lfemur -28.9794 -2.07935 -15.0571
ltibia 16.4681
lfoot -2.16093 -23.1576
ltoes -5.78336
250
root -7.19462 18.1081 -0.352063 -166.056 60.6232 -180.785
lowerback -2.55846 -7.96212 -0.722556
upperback 4.65521 -10.7539 11.406
thorax 8.95069 -5.61944 11.7063
lowerneck -10.1487 -2.31542 0.274375
upperneck 24.2097 0.961621 -13.723
head 9.36191 -0.625679 -4.66703
rclavicle -4.45278e-014 3.49861e-014
rhumerus -9.05329 1.08822 -83.9094
rradius 60.9975
rwrist -63.3845
rhand -59.0017 7.15745
rfingers 7.12502
rthumb -31.201 -20.2055
lclavicle -4.45278e-014 3.49861e-014
lhumerus 27.6656 -59.2574 92.8709
lradius 17.8512
lwrist -4.90747
lhand -2.94005 37.5597
lfingers 7.12502
lthumb -157.228 -113.764
rfemur -21.618 -4.96005 7.7707
rtibia 36.8301
rfoot -8.44013 -22.3954
rtoes 1.51211
lfemur -27.5546 -2.43152 -15.7478
ltibia 15.0516
lfoot -0.56114 -24.3512
ltoes -2.51947
251
root -7.16953 18.1239 -0.418162 -167.154 58.9942 -181.258
lowerback -3.36604 -7.36829 -0.215297
upperback 4.6772 -9.99101 11.6235
thorax 9.22162 -5.19203 11.7053
lowerneck -9.74987 -3.51589 0.178169
upperneck 24.3097 -0.7162 -13.5688
head 9.17466 -1.37115 -4.75335
rclavicle -2.8625e-014 -5.40694e-014
rhumerus -9.60598 3.09176 -84.9726
rradius 58.1184
rwrist -65.799
rhand -57.6005 4.77036
rfingers 7.12502
rthumb -29.8647 -22.8413
lclavicle -2.8625e-014 -5.40694e-014
lhumerus 25.3732 -60.4397 92.5849
lradius 18.2632
lwrist -2.87238
lhand -0.0291014 41.022
lfingers 7.12502
lthumb -154.438 -110.673
rfemur -20.3904 -4.74208 7.31029
rtibia 37.2487
rfoot -8.11214 -22.8383
rtoes 3.20508
lfemur -26.2692 -2.45573 -16.4768
ltibia 13.8023
lfoot 0.936174 -25.7684
ltoes 0.753913
252
root -7.14761 18.139 -0.478828 -168.243 57.5747 -181.764
lowerback -4.04645 -6.61064 0.24494
upperback 4.63839 -8.99772 11.7505
thorax 9.29465 -4.64677 11.685
lowerneck -9.25917 -4.79466 0.230865
upperneck 24.4021 -2.55383 -13.3499
head 8.95608 -2.17173 -4.84112
rclavicle -7.95139e-015 2.8625e-014
rhumerus -10.0559 4.87897 -86.0559
rradius 55.3045
rwrist -67.639
rhand -55.8905 1.63235
rfingers 7.12502
rthumb -28.2316 -26.261
lclavicle -7.95139e-015 2.8625e-014
lhumerus 23.8945 -62.6334 91.1799
lradius 19.044
lwrist 0.685105
lhand 2.31457 44.9921
lfingers 7.12502
lthumb -152.195 -107.045
rfemur -19.2528 -4.49858 6.78775
rtibia 37.5681
rfoot -7.78083 -23.0631
rtoes 5.94418
lfemur -25.1377 -2.09517 -17.3113
ltibia 12.8491
lfoot 2.06168 -27.3489
ltoes 2.69535
253
root -7.12857 18.1553 -0.538264 -169.255 56.14 -182.163
lowerback -4.5213 -5.9833 0.813805
upperback 4.51544 -8.16909 11.8905
thorax 9.18516 -4.17141 11.6106
lowerneck -8.73078 -5.98748 0.0128501
upperneck 24.5411 -4.21824 -13.0629
head 8.78098 -2.90922 -4.83162
rclavicle 7.15625e-014 -3.18055e-015
rhumerus -10.2274 6.9212 -87.2722
rradius 52.2798
rwrist -68.9722
rhand -53.5297 -2.0373
rfingers 7.12502
rthumb -25.9731 -30.2825
lclavicle 7.15625e-014 -3.18055e-015
lhumerus 22.2984 -64.4624 89.8759
lradius 19.9899
lwrist 5.08008
lhand 3.71735 49.4905
lfingers 7.12502
lthumb -150.854 -102.771
rfemur -18.0003 -4.30823 6.30985
rtibia 37.7212
rfoot -7.52855 -23.1368
rtoes 8.63386
lfemur -24.1125 -1.68579 -18.0782
ltibia 12.3368
lfoot 2.14114 -28.8832
ltoes 2.23806
254
root -7.10837 18.1791 -0.601857 -170.264 54.4245 -182.607
lowerback -5.05666 -5.37634 1.44522
upperback 4.32231 -7.37809 11.9521
thorax 9.03074 -3.70693 11.3946
lowerneck -8.15005 -7.23663 -0.113548
upperneck 24.7647 -5.99122 -12.6745
head 8.62772 -3.68049 -4.80291
rclavicle 2.70347e-014 6.36111e-015
rhumerus -10.0708 8.55716 -88.6229
rradius 49.0647
rwrist -69.7908
rhand -50.5394 -5.21661
rfingers 7.12502
rthumb -23.1067 -33.851
lclavicle 2.70347e-014 6.36111e-015
lhumerus 20.3434 -65.9432 89.1438
lradius 20.9084
lwrist 9.35315
lhand 5.03129 53.0699
lfingers 7.12502
lthumb -149.6 -99.416
rfemur -16.65 -4.40374 5.83571
rtibia 37.8729
rfoot -7.01436 -23.1055
rtoes 9.6928
lfemur -22.9815 -1.34763 -18.9217
ltibia 11.6963
lfoot 0.843571 -30.6345
ltoes -2.84776
